<?xml version="1.0" encoding="UTF-8"?>
<!DOCTYPE svg PUBLIC "-//W3C//DTD SVG 1.1//EN" "http://www.w3.org/Graphics/SVG/1.1/DTD/svg11.dtd">
<svg xmlns="http://www.w3.org/2000/svg" version="1.1" width="132px" height="132px" style="shape-rendering:geometricPrecision; text-rendering:geometricPrecision; image-rendering:optimizeQuality; fill-rule:evenodd; clip-rule:evenodd" xmlns:xlink="http://www.w3.org/1999/xlink">
<g><path style="opacity:0.987" fill="#ec1b1d" d="M 20.5,-0.5 C 50.5,-0.5 80.5,-0.5 110.5,-0.5C 120.5,3.5 127.5,10.5 131.5,20.5C 131.5,50.5 131.5,80.5 131.5,110.5C 127.5,120.5 120.5,127.5 110.5,131.5C 80.5,131.5 50.5,131.5 20.5,131.5C 10.5,127.5 3.5,120.5 -0.5,110.5C -0.5,80.5 -0.5,50.5 -0.5,20.5C 3.5,10.5 10.5,3.5 20.5,-0.5 Z"/></g>
<g><path style="opacity:1" fill="#fef7f6" d="M 23.5,97.5 C 22.5033,80.3414 22.17,63.008 22.5,45.5C 23.5778,42.0922 25.9111,40.0922 29.5,39.5C 34.8333,39.5 40.1667,39.5 45.5,39.5C 45.5,34.8333 45.5,30.1667 45.5,25.5C 49.5164,26.1001 53.0164,25.1001 56,22.5C 56.4994,28.1569 56.6661,33.8236 56.5,39.5C 62.1764,39.6661 67.8431,39.4994 73.5,39C 75.6147,38.4427 77.6147,37.6094 79.5,36.5C 80.6663,54.1572 80.833,71.8239 80,89.5C 78.4371,92.7284 75.9371,94.8951 72.5,96C 56.1228,96.1956 39.7895,96.6956 23.5,97.5 Z"/></g>
<g><path style="opacity:1" fill="#ea3739" d="M 107.5,32.5 C 107.56,31.9569 107.893,31.6236 108.5,31.5C 109.822,40.9918 109.822,50.3251 108.5,59.5C 108.827,50.3178 108.493,41.3178 107.5,32.5 Z"/></g>
<g><path style="opacity:1" fill="#fef7f7" d="M 107.5,32.5 C 108.493,41.3178 108.827,50.3178 108.5,59.5C 107.772,61.7346 106.439,63.5679 104.5,65C 105.793,65.49 107.127,65.6567 108.5,65.5C 108.666,73.1739 108.5,80.8406 108,88.5C 107.167,92 105,94.1667 101.5,95C 98.1832,95.4983 94.8499,95.665 91.5,95.5C 90.9885,98.963 89.9885,102.296 88.5,105.5C 87.0413,105.433 85.7079,105.766 84.5,106.5C 83.5027,85.6733 83.1694,64.6733 83.5,43.5C 84.1434,40.0125 86.1434,37.5125 89.5,36C 95.7989,36.0546 101.799,34.8879 107.5,32.5 Z"/></g>
<g><path style="opacity:1" fill="#ec5455" d="M 45.5,25.5 C 45.5,30.1667 45.5,34.8333 45.5,39.5C 40.1667,39.5 34.8333,39.5 29.5,39.5C 34.3054,38.5128 39.3054,38.1795 44.5,38.5C 44.1818,33.9677 44.5151,29.6344 45.5,25.5 Z"/></g>
<g><path style="opacity:1" fill="#ec5759" d="M 94.5,39.5 C 96.2646,38.5386 98.2646,38.2053 100.5,38.5C 100.826,47.0168 100.493,55.3501 99.5,63.5C 99.5,55.5 99.5,47.5 99.5,39.5C 97.8333,39.5 96.1667,39.5 94.5,39.5 Z"/></g>
<g><path style="opacity:1" fill="#ee4d4f" d="M 35.5,43.5 C 38.6248,42.5206 41.9581,42.1872 45.5,42.5C 45.8245,49.6866 45.4912,56.6866 44.5,63.5C 44.5,56.8333 44.5,50.1667 44.5,43.5C 41.5,43.5 38.5,43.5 35.5,43.5 Z"/></g>
<g><path style="opacity:1" fill="#eb1a1d" d="M 35.5,43.5 C 38.5,43.5 41.5,43.5 44.5,43.5C 44.5,50.1667 44.5,56.8333 44.5,63.5C 42.1432,63.3367 39.8098,63.5034 37.5,64C 36.0577,64.3768 35.0577,65.2101 34.5,66.5C 33.5088,59.6866 33.1755,52.6866 33.5,45.5C 33.8333,44.5 34.5,43.8333 35.5,43.5 Z"/></g>
<g><path style="opacity:1" fill="#ee7b7e" d="M 83.5,43.5 C 83.1694,64.6733 83.5027,85.6733 84.5,106.5C 84.44,107.043 84.1067,107.376 83.5,107.5C 82.1717,86.0038 82.1717,64.6704 83.5,43.5 Z"/></g>
<g><path style="opacity:1" fill="#f9e1e1" d="M 22.5,45.5 C 22.17,63.008 22.5033,80.3414 23.5,97.5C 23.2172,98.2891 22.7172,98.9558 22,99.5C 21.1713,81.3286 21.338,63.3286 22.5,45.5 Z"/></g>
<g><path style="opacity:1" fill="#ee4b4d" d="M 68.5,89.5 C 68.8261,80.9832 68.4927,72.6499 67.5,64.5C 67.5,63.8333 67.1667,63.5 66.5,63.5C 68.3993,57.1176 69.0659,50.4509 68.5,43.5C 64.8333,43.5 61.1667,43.5 57.5,43.5C 57.5,50.1667 57.5,56.8333 57.5,63.5C 56.5088,56.6866 56.1755,49.6866 56.5,42.5C 60.8333,42.5 65.1667,42.5 69.5,42.5C 69.8296,58.3422 69.4963,74.0089 68.5,89.5 Z"/></g>
<g><path style="opacity:1" fill="#eb1a1d" d="M 66.5,63.5 C 63.5,63.5 60.5,63.5 57.5,63.5C 57.5,56.8333 57.5,50.1667 57.5,43.5C 61.1667,43.5 64.8333,43.5 68.5,43.5C 69.0659,50.4509 68.3993,57.1176 66.5,63.5 Z"/></g>
<g><path style="opacity:1" fill="#eb1c1e" d="M 67.5,64.5 C 68.4927,72.6499 68.8261,80.9832 68.5,89.5C 68.4226,90.7498 67.756,91.5831 66.5,92C 55.505,92.4998 44.505,92.6665 33.5,92.5C 32.9118,83.897 33.5785,75.5637 35.5,67.5C 35.8333,67.5 36.1667,67.5 36.5,67.5C 39.1667,67.5 41.8333,67.5 44.5,67.5C 44.175,75.0191 44.5084,82.3524 45.5,89.5C 48.9619,90.4816 52.6286,90.815 56.5,90.5C 56.5,82.8333 56.5,75.1667 56.5,67.5C 60.6656,68.0561 64.3323,67.0561 67.5,64.5 Z"/></g>
<g><path style="opacity:1" fill="#f36463" d="M 36.5,67.5 C 39.2869,66.5233 42.2869,66.19 45.5,66.5C 45.5,74.1667 45.5,81.8333 45.5,89.5C 44.5084,82.3524 44.175,75.0191 44.5,67.5C 41.8333,67.5 39.1667,67.5 36.5,67.5 Z"/></g>
<g><path style="opacity:1" fill="#eb1d1f" d="M 94.5,39.5 C 96.1667,39.5 97.8333,39.5 99.5,39.5C 99.5,47.5 99.5,55.5 99.5,63.5C 96.7224,63.0217 94.7224,64.0217 93.5,66.5C 93.6236,67.1067 93.9569,67.44 94.5,67.5C 96.1667,67.5 97.8333,67.5 99.5,67.5C 99.5,74.5 99.5,81.5 99.5,88.5C 98.0563,91.8898 95.3896,93.2232 91.5,92.5C 91.3334,75.4967 91.5001,58.4967 92,41.5C 92.7083,40.6195 93.5416,39.9528 94.5,39.5 Z"/></g>
<g><path style="opacity:1" fill="#ef6565" d="M 94.5,67.5 C 96.2646,66.5386 98.2646,66.2053 100.5,66.5C 100.825,74.0191 100.492,81.3524 99.5,88.5C 99.5,81.5 99.5,74.5 99.5,67.5C 97.8333,67.5 96.1667,67.5 94.5,67.5 Z"/></g>
<g><path style="opacity:1" fill="#ea383a" d="M 33.5,45.5 C 33.1755,52.6866 33.5088,59.6866 34.5,66.5C 34.5,67.1667 34.8333,67.5 35.5,67.5C 33.5785,75.5637 32.9118,83.897 33.5,92.5C 32.1667,76.8333 32.1667,61.1667 33.5,45.5 Z"/></g>
<g><path style="opacity:1" fill="#f5b8b7" d="M 91.5,95.5 C 91.5,98.8333 91.5,102.167 91.5,105.5C 90.5,105.5 89.5,105.5 88.5,105.5C 89.9885,102.296 90.9885,98.963 91.5,95.5 Z"/></g>
</svg>
