<?xml version="1.0" standalone="no"?><!DOCTYPE svg PUBLIC "-//W3C//DTD SVG 1.1//EN" "http://www.w3.org/Graphics/SVG/1.1/DTD/svg11.dtd"><svg t="1700210280359" class="icon" viewBox="0 0 1024 1024" version="1.1" xmlns="http://www.w3.org/2000/svg" p-id="1684" xmlns:xlink="http://www.w3.org/1999/xlink" width="200" height="200"><path d="M64 388.256c0-113.504 0-170.24 22.08-213.6A202.656 202.656 0 0 1 174.656 86.08C218.016 64 274.752 64 388.256 64h247.488c113.504 0 170.24 0 213.6 22.08a202.656 202.656 0 0 1 88.576 88.576c22.08 43.36 22.08 100.096 22.08 213.6v247.488c0 113.504 0 170.24-22.08 213.6a202.656 202.656 0 0 1-88.576 88.576c-43.36 22.08-100.096 22.08-213.6 22.08h-247.488c-113.504 0-170.24 0-213.6-22.08a202.656 202.656 0 0 1-88.576-88.576C64 805.984 64 749.248 64 635.744v-247.488z" fill="#001E36" p-id="1685"></path><path d="M256 720.512V326.496c0-2.656 1.12-4.192 3.744-4.192 38.56 0 77.12-2.304 115.712-2.304 62.624 0 130.432 21.44 154.208 86.912 5.6 16.096 8.576 32.544 8.576 49.792 0 32.928-7.456 60.096-22.4 81.536-41.728 59.904-114.016 58.976-178.816 58.976v122.912c0.48 3.648-2.592 5.376-5.6 5.376H260.48c-2.976 0-4.48-1.536-4.48-4.992z m81.376-324.32v128.64c25.696 1.92 52.608 2.112 77.28-6.08 27.264-7.872 42.208-31.488 42.208-59.744 0.736-24.096-12.384-47.232-34.72-55.904-24.416-10.144-58.432-10.752-84.768-6.912zM771.104 499.424a138.112 138.112 0 0 0-35.776-12.928c-16-3.776-79.04-16.96-79.04 16 0.544 18.432 29.76 27.424 42.688 32.704 45.312 15.552 96.576 43.36 95.552 99.232 1.376 69.6-66.016 97.408-123.84 97.408-30.08 0.32-61.408-4.352-88.96-17.28a8.16 8.16 0 0 1-4.16-7.36v-66.592c-0.32-2.656 2.56-4.992 4.8-3.072 26.976 16.32 58.944 24.224 90.144 24.64 13.76 0 41.088-1.312 40.896-21.568 0-19.424-32.672-28.352-45.696-33.28a218.88 218.88 0 0 1-53.184-27.744 86.528 86.528 0 0 1-36.992-71.52c-0.128-65.504 61.952-94.912 117.824-94.944 26.112-0.224 54.176 1.728 78.496 12.352 3.52 1.024 4.224 4.704 4.224 8v62.272c0.224 3.84-4.096 5.184-6.976 3.68z" fill="#31A8FF" p-id="1686"></path></svg>