<?xml version="1.0" encoding="UTF-8"?>
<!DOCTYPE svg PUBLIC "-//W3C//DTD SVG 1.1//EN" "http://www.w3.org/Graphics/SVG/1.1/DTD/svg11.dtd">
<svg xmlns="http://www.w3.org/2000/svg" version="1.1" width="132px" height="132px" style="shape-rendering:geometricPrecision; text-rendering:geometricPrecision; image-rendering:optimizeQuality; fill-rule:evenodd; clip-rule:evenodd" xmlns:xlink="http://www.w3.org/1999/xlink">
<g><path style="opacity:0.82" fill="#272536" d="M 53.5,-0.5 C 61.1667,-0.5 68.8333,-0.5 76.5,-0.5C 104.338,10.1694 115.171,30.1694 109,59.5C 103.5,70.5076 97.0003,80.841 89.5,90.5C 97.4578,92.097 105.124,94.597 112.5,98C 122.6,105.669 122.933,113.669 113.5,122C 104.561,126.701 95.228,129.868 85.5,131.5C 71.8333,131.5 58.1667,131.5 44.5,131.5C 34.772,129.868 25.4387,126.701 16.5,122C 9.96265,116.525 8.79598,110.025 13,102.5C 20.8282,95.6101 29.9949,91.9435 40.5,91.5C 39.0182,87.8261 36.8515,84.4928 34,81.5C 26.886,72.6054 21.886,62.6054 19,51.5C 17.5693,25.4548 29.0693,8.12152 53.5,-0.5 Z M 58.5,7.5 C 84.8145,6.81785 99.8145,19.4845 103.5,45.5C 102.072,53.3592 99.2387,60.6926 95,67.5C 86.4296,80.6083 76.4296,92.6083 65,103.5C 50.0694,89.6115 38.0694,73.6115 29,55.5C 24.4384,36.8569 30.2717,22.3569 46.5,12C 50.5711,10.3695 54.5711,8.86954 58.5,7.5 Z M 60.5,33.5 C 72.6263,32.4529 77.4596,37.7862 75,49.5C 68.3333,57.5 61.6667,57.5 55,49.5C 52.8448,42.7847 54.6781,37.4514 60.5,33.5 Z M 44.5,99.5 C 46.1992,99.3398 47.8659,99.5065 49.5,100C 54.6813,105.348 60.0147,110.515 65.5,115.5C 70.9902,110.843 75.9902,105.676 80.5,100C 90.4727,99.8265 99.806,102.16 108.5,107C 110.85,109.373 111.017,111.873 109,114.5C 102.504,118.777 95.3377,121.277 87.5,122C 70.783,124.149 54.1163,123.816 37.5,121C 31.1696,120.25 25.6696,117.75 21,113.5C 20.3333,111.833 20.3333,110.167 21,108.5C 23.0795,106.877 25.2462,105.377 27.5,104C 33.2113,102.166 38.8779,100.666 44.5,99.5 Z"/></g>
<g><path style="opacity:0.806" fill="#272536" d="M 59.5,24.5 C 78.7522,24.2521 86.5855,33.5854 83,52.5C 75.8748,64.4087 66.0415,67.242 53.5,61C 42.8333,50 42.8333,39 53.5,28C 55.7274,27.059 57.7274,25.8923 59.5,24.5 Z M 60.5,33.5 C 54.6781,37.4514 52.8448,42.7847 55,49.5C 61.6667,57.5 68.3333,57.5 75,49.5C 77.4596,37.7862 72.6263,32.4529 60.5,33.5 Z"/></g>
</svg>
