<?xml version="1.0" standalone="no"?><!DOCTYPE svg PUBLIC "-//W3C//DTD SVG 1.1//EN" "http://www.w3.org/Graphics/SVG/1.1/DTD/svg11.dtd"><svg t="1710398461302" class="icon" viewBox="0 0 1024 1024" version="1.1" xmlns="http://www.w3.org/2000/svg" p-id="17859" xmlns:xlink="http://www.w3.org/1999/xlink" width="200" height="200"><path d="M1024 870.4c0 84.834987-68.768427 153.6-153.6 153.6H153.6c-84.834987 0-153.6-68.765013-153.6-153.6V153.6C0 68.768427 68.768427 0 153.6 0h716.8c84.831573 0 153.6 68.768427 153.6 153.6v716.8z" fill="#2DC100" p-id="17860"></path><path d="M685.407573 381.883733c-82.64704 4.317867-154.514773 29.371733-212.862293 85.97504-58.95168 57.186987-85.8624 127.26272-78.506667 214.132054-32.303787-4.000427-61.72672-8.403627-91.316906-10.89536-10.21952-0.86016-22.347093 0.361813-31.003307 5.246293-28.73344 16.213333-56.27904 34.51904-88.927573 54.92736 5.9904-27.09504 9.867947-50.82112 16.73216-73.642667 5.04832-16.77312 2.710187-26.108587-12.741974-37.031253-99.211947-70.045013-141.032107-174.871893-109.735253-282.794667 28.955307-99.84 100.061867-160.38912 196.67968-191.952213 131.874133-43.076267 280.077653 0.863573 360.267093 105.56416 28.962133 37.819733 46.721707 80.267947 51.41504 130.471253z m-380.371626-33.62816c0.761173-19.739307-16.34304-37.522773-36.6592-38.116693-20.800853-0.610987-37.90848 15.284907-38.516054 35.781973-0.6144 20.773547 15.274667 37.420373 36.225707 37.952854 20.770133 0.525653 38.181547-15.39072 38.949547-35.618134z m198.454613-38.130346c-20.391253 0.375467-37.62176 17.742507-37.259947 37.56032 0.372053 20.54144 17.27488 36.611413 38.242987 36.358826 21.02272-0.252587 36.9664-16.493227 36.768427-37.46816-0.17408-20.589227-17.001813-36.829867-37.751467-36.450986z" fill="#FFFFFF" p-id="17861"></path><path d="M871.08608 897.1264c-26.170027-11.65312-50.176-29.136213-75.73504-31.80544-25.460053-2.658987-52.224 12.028587-78.861653 14.752427-81.138347 8.301227-153.828693-14.312107-213.766827-69.741227-113.995093-105.437867-97.706667-267.106987 34.18112-353.512107 117.21728-76.793173 289.122987-51.193173 371.766613 55.360854 72.12032 92.9792 63.645013 216.405333-24.398506 294.516053-25.47712 22.606507-34.645333 41.209173-18.29888 71.010987 3.017387 5.502293 3.362133 12.468907 5.113173 19.418453z m-297.895253-288.423253c16.66048 0.017067 30.378667-13.021867 31.010133-29.477547 0.6656-17.421653-13.346133-32.034133-30.79168-32.105813-17.271467-0.078507-31.740587 14.738773-31.13984 31.901013 0.566613 16.397653 14.380373 29.661867 30.921387 29.682347z m192.037546-61.515094c-16.165547-0.11264-29.9008 13.120853-30.559573 29.453654-0.699733 17.466027 12.875093 31.808853 30.160213 31.853226 16.718507 0.054613 29.928107-12.588373 30.53568-29.22496 0.648533-17.506987-12.93312-31.962453-30.13632-32.08192z" fill="#FFFFFF" p-id="17862"></path></svg>