<?xml version="1.0" encoding="UTF-8"?>
<!DOCTYPE svg PUBLIC "-//W3C//DTD SVG 1.1//EN" "http://www.w3.org/Graphics/SVG/1.1/DTD/svg11.dtd">
<svg xmlns="http://www.w3.org/2000/svg" version="1.1" width="800px" height="800px" style="shape-rendering:geometricPrecision; text-rendering:geometricPrecision; image-rendering:optimizeQuality; fill-rule:evenodd; clip-rule:evenodd" xmlns:xlink="http://www.w3.org/1999/xlink">
<g><path style="opacity:1" fill="#f5f5f5" d="M -0.5,-0.5 C 266.167,-0.5 532.833,-0.5 799.5,-0.5C 799.5,266.167 799.5,532.833 799.5,799.5C 532.833,799.5 266.167,799.5 -0.5,799.5C -0.5,532.833 -0.5,266.167 -0.5,-0.5 Z"/></g>
<g><path style="opacity:1" fill="#16d327" d="M 399.5,791.5 C 392.011,790.671 384.344,790.171 376.5,790C 380.531,789.519 384.531,788.853 388.5,788C 386.444,787.689 384.444,787.189 382.5,786.5C 381.206,784.038 379.706,781.705 378,779.5C 377.075,776.866 377.909,775.699 380.5,776C 382.081,777.828 383.415,779.828 384.5,782C 385.448,782.483 386.448,782.649 387.5,782.5C 387.281,781.325 387.614,780.325 388.5,779.5C 392.429,777.571 395.762,774.904 398.5,771.5C 395.488,766.993 391.988,762.993 388,759.5C 387.5,759.667 387,759.833 386.5,760C 388.286,760.785 389.786,761.951 391,763.5C 392.946,766.377 394.279,769.377 395,772.5C 394.107,773.081 393.107,773.415 392,773.5C 390.123,772.747 388.289,771.914 386.5,771C 388.221,770.261 389.887,769.427 391.5,768.5C 390.609,767.41 389.609,767.41 388.5,768.5C 387.833,766.833 387.167,765.167 386.5,763.5C 385.201,764.09 384.368,765.09 384,766.5C 382.561,764.986 381.061,764.653 379.5,765.5C 380.955,767.22 381.788,769.22 382,771.5C 382.915,770.672 383.581,769.672 384,768.5C 384.615,771.045 384.115,773.378 382.5,775.5C 380.5,772.833 378.5,770.167 376.5,767.5C 375.719,768.729 375.219,770.062 375,771.5C 371.536,768.652 369.036,769.486 367.5,774C 370.09,777.739 372.424,781.573 374.5,785.5C 373.178,785.33 372.011,785.663 371,786.5C 368.913,784.255 367.579,781.588 367,778.5C 365.796,779.859 364.296,780.859 362.5,781.5C 364.287,782.316 365.954,783.316 367.5,784.5C 366.624,785.251 365.624,785.751 364.5,786C 368.599,789.021 367.933,790.187 362.5,789.5C 236.194,774.127 138.361,713.461 69,607.5C 7.59472,504.258 -6.07194,394.925 28,279.5C 72.8889,151.944 159.389,66.7768 287.5,24C 417.188,-11.5024 535.855,10.4976 643.5,90C 731.915,161.307 781.748,253.807 793,367.5C 800.315,496.295 757.148,604.462 663.5,692C 588.095,757.757 500.095,790.924 399.5,791.5 Z"/></g>
<g><path style="opacity:1" fill="#2acf38" d="M 179.5,161.5 C 180.675,161.281 181.675,161.614 182.5,162.5C 184.989,167.473 187.989,172.14 191.5,176.5C 187.39,177.721 183.723,179.721 180.5,182.5C 179.396,181.369 179.729,180.535 181.5,180C 179.924,179.56 178.59,178.727 177.5,177.5C 175.064,179.553 175.398,181.386 178.5,183C 178,183.167 177.5,183.333 177,183.5C 173.481,179.653 170.315,175.486 167.5,171C 167.833,170.5 168.167,170 168.5,169.5C 169.216,171.482 170.383,173.149 172,174.5C 172.333,171.5 172.667,168.5 173,165.5C 175.584,164.731 177.75,163.398 179.5,161.5 Z"/></g>
<g><path style="opacity:1" fill="#2acf38" d="M 387.5,161.5 C 388.675,161.281 389.675,161.614 390.5,162.5C 392.989,167.473 395.989,172.14 399.5,176.5C 395.39,177.721 391.723,179.721 388.5,182.5C 387.396,181.369 387.729,180.535 389.5,180C 387.924,179.56 386.59,178.727 385.5,177.5C 383.064,179.553 383.398,181.386 386.5,183C 386,183.167 385.5,183.333 385,183.5C 381.481,179.653 378.315,175.486 375.5,171C 375.833,170.5 376.167,170 376.5,169.5C 377.216,171.482 378.383,173.149 380,174.5C 380.333,171.5 380.667,168.5 381,165.5C 383.584,164.731 385.75,163.398 387.5,161.5 Z"/></g>
<g><path style="opacity:1" fill="#2acf38" d="M 595.5,161.5 C 596.675,161.281 597.675,161.614 598.5,162.5C 600.989,167.473 603.989,172.14 607.5,176.5C 603.39,177.721 599.723,179.721 596.5,182.5C 595.396,181.369 595.729,180.535 597.5,180C 595.924,179.56 594.59,178.727 593.5,177.5C 591.064,179.553 591.398,181.386 594.5,183C 594,183.167 593.5,183.333 593,183.5C 589.481,179.653 586.315,175.486 583.5,171C 583.833,170.5 584.167,170 584.5,169.5C 585.216,171.482 586.383,173.149 588,174.5C 588.333,171.5 588.667,168.5 589,165.5C 591.584,164.731 593.75,163.398 595.5,161.5 Z"/></g>
<g><path style="opacity:1" fill="#31ce3d" d="M 193.5,151.5 C 196.157,151.162 198.49,151.829 200.5,153.5C 202.771,157.044 204.771,160.71 206.5,164.5C 206.547,166 205.881,167 204.5,167.5C 204.331,165.883 203.997,164.216 203.5,162.5C 202.167,163.833 200.833,163.833 199.5,162.5C 198.702,164.078 198.202,165.744 198,167.5C 197.311,166.643 196.478,165.977 195.5,165.5C 194.491,168.473 194.491,171.473 195.5,174.5C 194.5,174.5 193.5,174.5 192.5,174.5C 192.414,172.323 191.747,170.323 190.5,168.5C 188.115,166.116 186.115,163.45 184.5,160.5C 184.808,159.692 185.308,159.025 186,158.5C 187.094,161.692 188.927,164.358 191.5,166.5C 192.834,164.182 192.168,162.515 189.5,161.5C 189.919,160.328 190.585,159.328 191.5,158.5C 192.95,159.655 193.95,161.155 194.5,163C 195.448,163.483 196.448,163.649 197.5,163.5C 197.548,160.708 196.215,158.875 193.5,158C 194.961,156.649 196.294,155.149 197.5,153.5C 197.167,153.167 196.833,152.833 196.5,152.5C 192.089,156.795 191.089,156.461 193.5,151.5 Z"/></g>
<g><path style="opacity:1" fill="#31ce3d" d="M 401.5,151.5 C 404.157,151.162 406.49,151.829 408.5,153.5C 410.771,157.044 412.771,160.71 414.5,164.5C 414.547,166 413.881,167 412.5,167.5C 412.331,165.883 411.997,164.216 411.5,162.5C 410.167,163.833 408.833,163.833 407.5,162.5C 406.702,164.078 406.202,165.744 406,167.5C 405.311,166.643 404.478,165.977 403.5,165.5C 402.491,168.473 402.491,171.473 403.5,174.5C 402.5,174.5 401.5,174.5 400.5,174.5C 400.414,172.323 399.747,170.323 398.5,168.5C 396.115,166.116 394.115,163.45 392.5,160.5C 392.808,159.692 393.308,159.025 394,158.5C 395.094,161.692 396.927,164.358 399.5,166.5C 400.834,164.182 400.168,162.515 397.5,161.5C 397.919,160.328 398.585,159.328 399.5,158.5C 400.95,159.655 401.95,161.155 402.5,163C 403.448,163.483 404.448,163.649 405.5,163.5C 405.548,160.708 404.215,158.875 401.5,158C 402.961,156.649 404.294,155.149 405.5,153.5C 405.167,153.167 404.833,152.833 404.5,152.5C 400.089,156.795 399.089,156.461 401.5,151.5 Z"/></g>
<g><path style="opacity:1" fill="#31ce3d" d="M 609.5,151.5 C 612.157,151.162 614.49,151.829 616.5,153.5C 618.771,157.044 620.771,160.71 622.5,164.5C 622.547,166 621.881,167 620.5,167.5C 620.331,165.883 619.997,164.216 619.5,162.5C 618.167,163.833 616.833,163.833 615.5,162.5C 614.702,164.078 614.202,165.744 614,167.5C 613.311,166.643 612.478,165.977 611.5,165.5C 610.491,168.473 610.491,171.473 611.5,174.5C 610.5,174.5 609.5,174.5 608.5,174.5C 608.414,172.323 607.747,170.323 606.5,168.5C 604.115,166.116 602.115,163.45 600.5,160.5C 600.808,159.692 601.308,159.025 602,158.5C 603.094,161.692 604.927,164.358 607.5,166.5C 608.834,164.182 608.168,162.515 605.5,161.5C 605.919,160.328 606.585,159.328 607.5,158.5C 608.95,159.655 609.95,161.155 610.5,163C 611.448,163.483 612.448,163.649 613.5,163.5C 613.548,160.708 612.215,158.875 609.5,158C 610.961,156.649 612.294,155.149 613.5,153.5C 613.167,153.167 612.833,152.833 612.5,152.5C 608.089,156.795 607.089,156.461 609.5,151.5 Z"/></g>
<g><path style="opacity:1" fill="#f5f5f5" d="M 372.5,426.5 C 372.5,404.167 372.5,381.833 372.5,359.5C 371.89,338.096 372.723,316.763 375,295.5C 382.643,256.869 404.143,229.036 439.5,212C 488.591,191.197 535.258,195.53 579.5,225C 614.194,252.168 627.694,287.668 620,331.5C 612.276,372.865 589.776,403.032 552.5,422C 540.016,427.431 527.016,429.764 513.5,429C 494.505,423.168 487.338,410.668 492,391.5C 495.419,386.077 499.585,381.244 504.5,377C 514.169,370.497 524.169,364.497 534.5,359C 566.024,338.459 571.191,312.626 550,281.5C 536.735,267.372 520.402,261.038 501,262.5C 481.451,261.57 464.451,267.57 450,280.5C 442.366,289.44 437.699,299.773 436,311.5C 435.9,372.843 435.233,434.177 434,495.5C 423.879,538.621 398.712,569.454 358.5,588C 306.714,609.174 260.547,600.674 220,562.5C 187.695,525.915 177.361,483.915 189,436.5C 198.148,419.367 210.648,405.2 226.5,394C 241.335,383.581 257.335,375.248 274.5,369C 298.927,364.417 313.261,374.417 317.5,399C 317.821,406.356 315.154,412.356 309.5,417C 297.048,424.042 284.381,430.709 271.5,437C 245.012,455.369 239.512,478.869 255,507.5C 268.612,529.721 288.445,539.221 314.5,536C 327.779,534.266 340.112,529.933 351.5,523C 363.717,513.068 370.55,500.234 372,484.5C 372.5,465.17 372.667,445.836 372.5,426.5 Z"/></g>
<g><path style="opacity:1" fill="#2ccf3a" d="M 195.5,349.5 C 196.675,349.281 197.675,349.614 198.5,350.5C 201.315,354.645 203.982,358.812 206.5,363C 206.167,363.833 205.833,364.667 205.5,365.5C 202.878,358.92 200.545,359.087 198.5,366C 197.451,366.492 196.451,366.326 195.5,365.5C 194.933,368.212 194.599,370.879 194.5,373.5C 190.612,368.75 186.945,363.75 183.5,358.5C 187.54,355.447 191.54,352.447 195.5,349.5 Z"/></g>
<g><path style="opacity:1" fill="#29cf36" d="M 178.5,360.5 C 179.675,360.281 180.675,360.614 181.5,361.5C 185.241,365.276 188.241,369.61 190.5,374.5C 185.951,377.408 181.451,380.408 177,383.5C 173.341,379.512 170.175,375.178 167.5,370.5C 170.586,366.408 174.253,363.075 178.5,360.5 Z"/></g>
<g><path style="opacity:1" fill="#2fd23c" d="M 372.5,359.5 C 372.5,381.833 372.5,404.167 372.5,426.5C 371.67,416.008 371.17,405.341 371,394.5C 370.751,393.376 370.251,392.376 369.5,391.5C 368.686,393.766 368.186,396.1 368,398.5C 365.708,392.349 362.875,386.849 359.5,382C 360.573,380.584 360.573,379.25 359.5,378C 364.295,378.356 367.795,376.522 370,372.5C 370.333,374.5 370.667,376.5 371,378.5C 371.172,371.987 371.672,365.653 372.5,359.5 Z"/></g>
<g><path style="opacity:1" fill="#2acf38" d="M 178.5,559.5 C 180.143,559.48 181.476,560.147 182.5,561.5C 185.254,565.23 187.92,569.063 190.5,573C 186.397,576.163 182.23,579.33 178,582.5C 173.416,578.907 169.916,574.407 167.5,569C 167.833,568.5 168.167,568 168.5,567.5C 170.979,573.75 172.646,573.75 173.5,567.5C 170.093,567.875 169.593,566.875 172,564.5C 174.562,563.273 176.728,561.606 178.5,559.5 Z"/></g>
<g><path style="opacity:1" fill="#2acf38" d="M 594.5,559.5 C 596.143,559.48 597.476,560.147 598.5,561.5C 601.254,565.23 603.92,569.063 606.5,573C 602.397,576.163 598.23,579.33 594,582.5C 589.416,578.907 585.916,574.407 583.5,569C 583.833,568.5 584.167,568 584.5,567.5C 586.979,573.75 588.646,573.75 589.5,567.5C 586.093,567.875 585.593,566.875 588,564.5C 590.562,563.273 592.728,561.606 594.5,559.5 Z"/></g>
<g><path style="opacity:1" fill="#29cf37" d="M 402.5,746.5 C 404.39,746.297 405.89,746.963 407,748.5C 408.905,751.971 411.072,755.304 413.5,758.5C 414.681,760.198 414.681,761.865 413.5,763.5C 412.571,762.311 412.238,760.978 412.5,759.5C 410.5,759.5 408.5,759.5 406.5,759.5C 406.762,760.978 406.429,762.311 405.5,763.5C 404.264,762.754 402.93,762.421 401.5,762.5C 401.785,764.288 401.452,765.955 400.5,767.5C 399.833,767.167 399.167,766.833 398.5,766.5C 396.528,762.929 394.195,759.595 391.5,756.5C 395.333,753.306 399,749.973 402.5,746.5 Z"/></g>
<g><path style="opacity:1" fill="#2cd138" d="M 399.5,791.5 C 386.958,791.841 374.625,791.174 362.5,789.5C 367.933,790.187 368.599,789.021 364.5,786C 365.624,785.751 366.624,785.251 367.5,784.5C 365.954,783.316 364.287,782.316 362.5,781.5C 364.296,780.859 365.796,779.859 367,778.5C 367.579,781.588 368.913,784.255 371,786.5C 372.011,785.663 373.178,785.33 374.5,785.5C 372.424,781.573 370.09,777.739 367.5,774C 369.036,769.486 371.536,768.652 375,771.5C 375.219,770.062 375.719,768.729 376.5,767.5C 378.5,770.167 380.5,772.833 382.5,775.5C 384.115,773.378 384.615,771.045 384,768.5C 383.581,769.672 382.915,770.672 382,771.5C 381.788,769.22 380.955,767.22 379.5,765.5C 381.061,764.653 382.561,764.986 384,766.5C 384.368,765.09 385.201,764.09 386.5,763.5C 387.167,765.167 387.833,766.833 388.5,768.5C 389.609,767.41 390.609,767.41 391.5,768.5C 389.887,769.427 388.221,770.261 386.5,771C 388.289,771.914 390.123,772.747 392,773.5C 393.107,773.415 394.107,773.081 395,772.5C 394.279,769.377 392.946,766.377 391,763.5C 389.786,761.951 388.286,760.785 386.5,760C 387,759.833 387.5,759.667 388,759.5C 391.988,762.993 395.488,766.993 398.5,771.5C 395.762,774.904 392.429,777.571 388.5,779.5C 387.614,780.325 387.281,781.325 387.5,782.5C 386.448,782.649 385.448,782.483 384.5,782C 383.415,779.828 382.081,777.828 380.5,776C 377.909,775.699 377.075,776.866 378,779.5C 379.706,781.705 381.206,784.038 382.5,786.5C 384.444,787.189 386.444,787.689 388.5,788C 384.531,788.853 380.531,789.519 376.5,790C 384.344,790.171 392.011,790.671 399.5,791.5 Z"/></g>
</svg>
