<?xml version="1.0" encoding="UTF-8"?>
<!DOCTYPE svg PUBLIC "-//W3C//DTD SVG 1.1//EN" "http://www.w3.org/Graphics/SVG/1.1/DTD/svg11.dtd">
<svg xmlns="http://www.w3.org/2000/svg" version="1.1" width="512px" height="512px" style="shape-rendering:geometricPrecision; text-rendering:geometricPrecision; image-rendering:optimizeQuality; fill-rule:evenodd; clip-rule:evenodd" xmlns:xlink="http://www.w3.org/1999/xlink">
<g><path style="opacity:1" fill="#f5f5f5" d="M -0.5,-0.5 C 79.5,-0.5 159.5,-0.5 239.5,-0.5C 146.083,9.12252 75.9167,54.4559 29,135.5C 12.9537,166.364 3.12038,199.031 -0.5,233.5C -0.5,155.5 -0.5,77.5 -0.5,-0.5 Z"/></g>
<g><path style="opacity:1" fill="#f5f5f5" d="M 271.5,-0.5 C 351.5,-0.5 431.5,-0.5 511.5,-0.5C 511.5,79.5 511.5,159.5 511.5,239.5C 501.335,141.952 453.002,70.4517 366.5,25C 336.204,11.0112 304.538,2.51116 271.5,-0.5 Z"/></g>
<g><path style="opacity:1" fill="#02c802" d="M 239.5,-0.5 C 250.167,-0.5 260.833,-0.5 271.5,-0.5C 304.538,2.51116 336.204,11.0112 366.5,25C 453.002,70.4517 501.335,141.952 511.5,239.5C 511.5,250.167 511.5,260.833 511.5,271.5C 501.74,368.901 453.74,440.401 367.5,486C 336.937,500.405 304.937,508.905 271.5,511.5C 258.833,511.5 246.167,511.5 233.5,511.5C 144.163,500.607 76.663,456.607 31,379.5C 12.866,345.619 2.36601,309.619 -0.5,271.5C -0.5,258.833 -0.5,246.167 -0.5,233.5C 3.12038,199.031 12.9537,166.364 29,135.5C 75.9167,54.4559 146.083,9.12252 239.5,-0.5 Z"/></g>
<g><path style="opacity:1" fill="#f5f5f5" d="M 219.5,314.5 C 214.265,316.45 208.598,317.117 202.5,316.5C 192.339,315.868 182.339,314.202 172.5,311.5C 160.018,317.241 147.685,323.241 135.5,329.5C 135.167,328.833 134.833,328.167 134.5,327.5C 137.835,317.828 141.168,308.161 144.5,298.5C 125.991,285.489 112.491,268.489 104,247.5C 95.3701,210.723 105.537,180.223 134.5,156C 178.905,125.344 225.239,122.344 273.5,147C 292.155,157.988 306.322,173.155 316,192.5C 318.211,197.298 319.711,202.298 320.5,207.5C 281.754,204.439 251.254,218.773 229,250.5C 217.392,270.544 214.225,291.877 219.5,314.5 Z"/></g>
<g><path style="opacity:1" fill="#0cc80a" d="M 244.5,176.5 C 260.767,175.374 266.933,182.707 263,198.5C 258.532,205.085 252.365,207.252 244.5,205C 236.39,200.936 233.557,194.436 236,185.5C 237.688,181.315 240.521,178.315 244.5,176.5 Z"/></g>
<g><path style="opacity:1" fill="#13c711" d="M 167.5,176.5 C 184.722,175.539 190.888,183.205 186,199.5C 181.032,205.115 174.865,206.948 167.5,205C 160.024,200.585 157.191,194.085 159,185.5C 161.362,181.973 164.196,178.973 167.5,176.5 Z"/></g>
<g><path style="opacity:1" fill="#f5f5f5" d="M 301.5,213.5 C 336.357,209.839 366.191,220.173 391,244.5C 415.094,273.187 416.428,302.854 395,333.5C 388.628,341.539 381.295,348.539 373,354.5C 372.333,356.167 372.333,357.833 373,359.5C 376.052,366.973 378.052,374.64 379,382.5C 369.529,376.514 359.696,371.181 349.5,366.5C 306.913,379.064 270.413,369.397 240,337.5C 223.24,314.695 219.907,290.028 230,263.5C 245.698,235.317 269.531,218.651 301.5,213.5 Z"/></g>
<g><path style="opacity:1" fill="#10c80d" d="M 284.5,255.5 C 298.012,255.187 302.845,261.52 299,274.5C 293.733,280.683 287.566,281.849 280.5,278C 273.163,268.868 274.496,261.368 284.5,255.5 Z"/></g>
<g><path style="opacity:1" fill="#14c810" d="M 343.5,255.5 C 353.573,253.594 359.573,257.594 361.5,267.5C 359.067,279.104 352.4,282.604 341.5,278C 336.789,273.86 335.289,268.694 337,262.5C 338.694,259.642 340.861,257.309 343.5,255.5 Z"/></g>
<g><path style="opacity:1" fill="#f5f5f5" d="M -0.5,271.5 C 2.36601,309.619 12.866,345.619 31,379.5C 76.663,456.607 144.163,500.607 233.5,511.5C 155.5,511.5 77.5,511.5 -0.5,511.5C -0.5,431.5 -0.5,351.5 -0.5,271.5 Z"/></g>
<g><path style="opacity:1" fill="#88df85" d="M 219.5,314.5 C 220.404,315.209 220.737,316.209 220.5,317.5C 214.31,317.823 208.31,317.49 202.5,316.5C 208.598,317.117 214.265,316.45 219.5,314.5 Z"/></g>
<g><path style="opacity:1" fill="#f5f5f5" d="M 511.5,271.5 C 511.5,351.5 511.5,431.5 511.5,511.5C 431.5,511.5 351.5,511.5 271.5,511.5C 304.937,508.905 336.937,500.405 367.5,486C 453.74,440.401 501.74,368.901 511.5,271.5 Z"/></g>
<g><path style="opacity:1" fill="#16c515" d="M 195.5,349.5 C 199.06,352.409 202.06,355.909 204.5,360C 204.167,360.5 203.833,361 203.5,361.5C 199.91,360.146 198.244,361.479 198.5,365.5C 196.856,365.714 195.356,365.38 194,364.5C 193.175,366.701 193.675,368.534 195.5,370C 194.874,370.75 194.374,371.584 194,372.5C 191.712,367.541 188.379,364.208 184,362.5C 183.333,363.167 183.333,363.833 184,364.5C 187.369,367.582 189.369,371.248 190,375.5C 188.978,376.354 188.145,377.354 187.5,378.5C 183.34,379.816 179.506,381.816 176,384.5C 174.797,380.408 172.297,378.741 168.5,379.5C 171.027,381.377 172.694,383.877 173.5,387C 173.37,388.059 172.87,388.892 172,389.5C 170.956,388.377 170.29,387.044 170,385.5C 169.505,387.473 169.338,389.473 169.5,391.5C 168.5,391.5 167.5,391.5 166.5,391.5C 166.381,384.319 165.381,383.986 163.5,390.5C 164.326,391.451 164.492,392.451 164,393.5C 163.163,391.993 161.996,391.493 160.5,392C 161.731,393.183 161.731,394.349 160.5,395.5C 157.577,390.063 155.244,384.396 153.5,378.5C 155.262,378.643 156.929,378.309 158.5,377.5C 159.105,380.304 159.938,382.971 161,385.5C 160.503,383.802 160.67,382.135 161.5,380.5C 160.926,378.941 160.26,377.441 159.5,376C 163.617,373.898 163.95,371.731 160.5,369.5C 161,369.167 161.5,368.833 162,368.5C 163.3,369.707 164.8,370.374 166.5,370.5C 165.833,372.5 165.167,374.5 164.5,376.5C 165.822,376.67 166.989,376.337 168,375.5C 167.845,373.189 167.845,370.856 168,368.5C 170.029,366.142 172.029,363.808 174,361.5C 174.725,362.059 175.558,362.392 176.5,362.5C 179.009,361.164 181.676,360.33 184.5,360C 184.167,359.667 183.833,359.333 183.5,359C 187.066,355.132 191.066,351.965 195.5,349.5 Z"/></g>
</svg>
